<svg xmlns="http://www.w3.org/2000/svg" xmlns:xlink="http://www.w3.org/1999/xlink" data-name="Layer 1" width="1109.7900390625" height="748.3400268554688" style=""><rect id="backgroundrect" width="100%" height="100%" x="0" y="0" fill="none" stroke="none"/><defs><linearGradient id="4673c98d-e8c8-4911-bde5-090ef44e1581" x1="0.5000191926956177" y1="1.0000344514846802" x2="0.5000191926956177" y2="7.40300123425186e-8"><stop offset="0.2" stop-color="gray" stop-opacity="0.4"/><stop offset="0.46" stop-color="gray" stop-opacity="0.5"/><stop offset="1" stop-opacity="0.6"/></linearGradient><linearGradient id="528408a2-f79a-48f6-b2a6-578d2aaf4c5c" x1="0.5000742077827454" y1="0.9996888637542725" x2="0.5000742077827454" y2="-0.00009745157876750454"><stop offset="0" stop-color="gray" stop-opacity="0.25"/><stop offset="0.54" stop-color="gray" stop-opacity="0.12"/><stop offset="1" stop-color="gray" stop-opacity="0.1"/></linearGradient></defs><title>working late</title><g class="currentLayer" style=""><title>Layer 1</title><path d="M1106.7499993896483,540.5799981689453 c0,44.37 -244.24,207.76 -549.27,207.76 S12.33999938964844,574.2199981689453 12.33999938964844,529.8499981689453 s240.11,57.79 545.14,57.79 S1106.7499993896483,496.1699981689453 1106.7499993896483,540.5799981689453 z" fill="#3f3d56" id="svg_1" class=""/><path d="M1109.7799993896485,522.8699981689454 c0,0.5900000000000001 0,1.18 0,1.78 c-0.6700000000000002,18.44 -10.94,36.78 -29.68,49.73 c-19.88,13.72 -46.54,20.94 -73.91,25.55 c-4.28,0.7200000000000001 -8.58,1.37 -12.870000000000001,2 c-2.19,0.30000000000000004 -4.37,0.6000000000000001 -6.54,0.8800000000000001 c-60.93,8 -123.14,9.53 -185.06,11 c-64.77,1.6 -129.6,3.18 -194.44,4 l-12.86,0.15000000000000002 c-98.38,1.06 -196.72,0.17 -294.74,-5.41 c-30.42,-1.7200000000000002 -61.14,-4 -91.3,-7.84 q-6.45,-0.79 -12.86,-1.73 c-40,-5.73 -78.81,-14.52 -114.17,-28.79 A254.48,254.48 0 0 1 56.88999938964844,562.8899981689453 c-22.21,-11.79 -40.94,-26.7 -50.21,-45 A63.12,63.12 0 0 1 0.27999938964843807,483.1699981689453 a81.22,81.22 0 0 1 2.23,-12.870000000000001 a114.68,114.68 0 0 1 12.63,-29.71 c14.44,-24.42 36.13,-46.31 54.83,-69.24 C109.88999938964844,322.4799981689453 135.88999938964844,260.7299981689453 99.04999938964843,210.63999816894534 c-10.57,-14.39 -25.85,-27 -34.46,-42.05 A67.72,67.72 0 0 1 56.14999938964844,142.1699981689453 a95.07,95.07 0 0 1 -0.53,-12.870000000000001 a178.53,178.53 0 0 1 3.75,-29.84 c6,-30.72 17.21,-63.84 51.83,-83 c23.63,-13.08 53.75,-17.14 84.29,-16.37 q6.43,0.15000000000000002 12.86,0.6000000000000001 c11.71,0.77 23.35,2.19 34.59,4 c69.44,11.09 133.53,34.26 198.23,55.18 c49.26,15.92 100.28,30.81 153.22,37.91 c4.28,0.5700000000000001 8.56,1.1 12.86,1.56 c12.41,1.36 24.93,2.26 37.55,2.63 C707.6099993896485,103.7699981689453 780.8899993896484,90.16999816894531 822.5999993896485,54.84999816894532 C862.8899993896484,20.70999816894532 938.4499993896484,17.95999816894532 993.2899993896485,38.34999816894532 l0.8200000000000001,0.31000000000000005 q6.19,2.36 12,5.08 c40.41,19 67.48,51.54 71.3,85.59 a74.3,74.3 0 0 1 0.3400000000000001,12.74 a0.53,0.53 0 0 1 0,0.13 c-2.62,41.89 -36.86,77.07 -71.63,112.31 c-4.3,4.35 -8.61,8.7 -12.870000000000001,13.08 c-11.28,11.58 -22.21,23.25 -31.69,35.26 a165.34,165.34 0 0 0 -11.92,17.1 A110.45,110.45 0 0 0 941.1699993896484,337.1699981689453 a71.62,71.62 0 0 0 -4.67,19.3 a50.47,50.47 0 0 0 5,27.6 l0.09000000000000002,0.2 c9.28,18.4 28.92,31.44 51.66,43 c4.19,2.14 8.5,4.22 12.870000000000001,6.28 c24.66,11.64 51.23,22.45 71.43,36.82 A107.09,107.09 0 0 1 1092.7299993896484,483.1699981689453 a77.34,77.34 0 0 1 5.36,6.17 a54.14,54.14 0 0 1 11.68,32.69 C1109.7799993896485,522.3299981689453 1109.7799993896485,522.5999981689453 1109.7799993896485,522.8699981689454 z" fill="#181616" id="svg_2"/><path d="M1109.7799993896485,522.8699981689454 c0,0.5900000000000001 0,1.18 0,1.78 c-0.6700000000000002,18.44 -10.94,36.78 -29.68,49.73 c-19.88,13.72 -46.54,20.94 -73.91,25.55 c-4.28,0.7200000000000001 -8.58,1.37 -12.870000000000001,2 c-2.19,0.30000000000000004 -4.37,0.6000000000000001 -6.54,0.8800000000000001 c-60.93,8 -123.14,9.53 -185.06,11 c-64.77,1.6 -129.6,3.18 -194.44,4 l-12.86,0.15000000000000002 c-98.38,1.06 -196.72,0.17 -294.74,-5.41 c-30.42,-1.7200000000000002 -61.14,-4 -91.3,-7.84 q-6.45,-0.79 -12.86,-1.73 c-40,-5.73 -78.81,-14.52 -114.17,-28.79 A254.48,254.48 0 0 1 56.88999938964844,562.8899981689453 c-22.21,-11.79 -40.94,-26.7 -50.21,-45 A63.12,63.12 0 0 1 0.27999938964843807,483.1699981689453 a81.22,81.22 0 0 1 2.23,-12.870000000000001 a114.68,114.68 0 0 1 12.63,-29.71 c14.44,-24.42 36.13,-46.31 54.83,-69.24 C109.88999938964844,322.4799981689453 135.88999938964844,260.7299981689453 99.04999938964843,210.63999816894534 c-10.57,-14.39 -25.85,-27 -34.46,-42.05 A67.72,67.72 0 0 1 56.14999938964844,142.1699981689453 a95.07,95.07 0 0 1 -0.53,-12.870000000000001 a178.53,178.53 0 0 1 3.75,-29.84 c6,-30.72 17.21,-63.84 51.83,-83 c23.63,-13.08 53.75,-17.14 84.29,-16.37 q6.43,0.15000000000000002 12.86,0.6000000000000001 c11.71,0.77 23.35,2.19 34.59,4 c69.44,11.09 133.53,34.26 198.23,55.18 c49.26,15.92 100.28,30.81 153.22,37.91 c4.28,0.5700000000000001 8.56,1.1 12.86,1.56 c12.41,1.36 24.93,2.26 37.55,2.63 C707.6099993896485,103.7699981689453 780.8899993896484,90.16999816894531 822.5999993896485,54.84999816894532 C862.8899993896484,20.70999816894532 938.4499993896484,17.95999816894532 993.2899993896485,38.34999816894532 l0.8200000000000001,0.31000000000000005 q6.19,2.36 12,5.08 c40.41,19 67.48,51.54 71.3,85.59 a74.3,74.3 0 0 1 0.3400000000000001,12.74 a0.53,0.53 0 0 1 0,0.13 c-2.62,41.89 -36.86,77.07 -71.63,112.31 c-4.3,4.35 -8.61,8.7 -12.870000000000001,13.08 c-11.28,11.58 -22.21,23.25 -31.69,35.26 a165.34,165.34 0 0 0 -11.92,17.1 A110.45,110.45 0 0 0 941.1699993896484,337.1699981689453 a71.62,71.62 0 0 0 -4.67,19.3 a50.47,50.47 0 0 0 5,27.6 l0.09000000000000002,0.2 c9.28,18.4 28.92,31.44 51.66,43 c4.19,2.14 8.5,4.22 12.870000000000001,6.28 c24.66,11.64 51.23,22.45 71.43,36.82 A107.09,107.09 0 0 1 1092.7299993896484,483.1699981689453 a77.34,77.34 0 0 1 5.36,6.17 a54.14,54.14 0 0 1 11.68,32.69 C1109.7799993896485,522.3299981689453 1109.7799993896485,522.5999981689453 1109.7799993896485,522.8699981689454 z" fill="url(#4673c98d-e8c8-4911-bde5-090ef44e1581)" id="svg_3"/><path d="M1006.1599993896484,43.739998168945306 V254.4999981689453 c-4.3,4.36 -8.61,8.71 -12.870000000000001,13.09 V38.34999816894532 z" fill="#3f3d56" id="svg_4"/><path d="M1077.7999993896485,142.06999816894532 a0.5700000000000001,0.5700000000000001 0 0 1 0,0.13 H56.14999938964844 a95.21,95.21 0 0 1 -0.53,-12.870000000000001 H1077.4599993896484 A74.27,74.27 0 0 1 1077.7999993896485,142.06999816894532 z" fill="#3f3d56" id="svg_5"/><circle cx="241.32000732421875" cy="71.80999755859375" r="3.75" fill="#e7effd" id="svg_6"/><circle cx="121.22000122070312" cy="64.30000305175781" r="3.75" fill="#e7effd" id="svg_7"/><circle cx="283.67999267578125" cy="71.80999755859375" r="1.6100000143051147" fill="#e7effd" id="svg_8"/><circle cx="163.0399932861328" cy="68.05999755859375" r="1.6100000143051147" fill="#e7effd" id="svg_9"/><circle cx="161.44000244140625" cy="180.50999450683594" r="1.6100000143051147" fill="#e7effd" id="svg_10"/><circle cx="904.010009765625" cy="95.52999877929688" r="1.6100000143051147" fill="#e7effd" id="svg_11"/><circle cx="358.739990234375" cy="97.01000213623047" r="1.6100000143051147" fill="#e7effd" id="svg_12"/><circle cx="824.6599731445312" cy="93.79000091552734" r="1.6100000143051147" fill="#e7effd" id="svg_13"/><circle cx="1027.3299560546875" cy="98.62000274658203" r="1.6100000143051147" fill="#e7effd" id="svg_14"/><path d="M1109.7799993896485,522.8699981689454 c0,0.5900000000000001 0,1.18 0,1.78 c-0.51,18.58 -10.8,37.11 -29.68,50.15 c-19.88,13.72 -46.54,20.94 -73.91,25.55 c-4.28,0.7200000000000001 -8.58,1.37 -12.870000000000001,2 c-2.19,0.30000000000000004 -4.37,0.6000000000000001 -6.54,0.8800000000000001 c-15,2 -30.08,3.5300000000000002 -45.21,4.8100000000000005 c-20.3,1.7200000000000002 -40.7,2.91 -61.12,3.79 c-26.22,1.15 -52.49,1.8 -78.73,2.45 c-51.29,1.26 -102.62,2.52 -154,3.39 l-18.23,0.30000000000000004 l-22.24,0.30000000000000004 l-12.86,0.15000000000000002 c-81,0.8600000000000001 -161.88,0.42000000000000004 -242.62,-2.88 q-8.06,-0.32000000000000006 -16.09,-0.7000000000000001 q-18,-0.79 -36,-1.83 c-24.05,-1.36 -48.29,-3.08 -72.27,-5.63 q-9.54,-1 -19,-2.21 q-6.45,-0.79 -12.86,-1.73 q-7.14,-1 -14.22,-2.18 c-35,-5.72 -68.79,-14 -99.95,-26.62 A259.37,259.37 0 0 1 56.88999938964844,563.3099981689453 v-176 c4.44,-5.15 8.85,-10.3 13.09,-15.51 c5.1,-6.26 10,-12.71 14.5,-19.33 h96.8 V292.8199981689453 h170.5 V423.95999816894533 H629.4899993896485 v-104 H949.8899993896484 a112,112 0 0 0 -8.39,16.65 V337.1699981689453 h-0.37000000000000005 a71.62,71.62 0 0 0 -4.67,19.3 a50.47,50.47 0 0 0 5,27.6 v0.42000000000000004 l0.09000000000000002,0.2 c9.28,18.4 28.92,31.44 51.66,43 c4.19,2.14 8.5,4.22 12.870000000000001,6.28 c24.41,11.52 50.71,22.24 70.83,36.4 l0.6000000000000001,0.42000000000000004 A107.61,107.61 0 0 1 1092.3199993896485,483.1699981689453 c0.15000000000000002,0.14 0.28,0.28 0.41000000000000003,0.42000000000000004 a77.34,77.34 0 0 1 5.36,6.17 a54.21,54.21 0 0 1 11.68,32.27 C1109.7799993896485,522.3299981689453 1109.7799993896485,522.5999981689453 1109.7799993896485,522.8699981689454 z" fill="#181616" id="svg_15"/><path d="M1109.7799993896485,522.8699981689454 c0,0.5900000000000001 0,1.18 0,1.78 c-0.51,18.58 -10.8,37.11 -29.68,50.15 c-19.88,13.72 -46.54,20.94 -73.91,25.55 c-4.28,0.7200000000000001 -8.58,1.37 -12.870000000000001,2 c-2.19,0.30000000000000004 -4.37,0.6000000000000001 -6.54,0.8800000000000001 c-15,2 -30.08,3.5300000000000002 -45.21,4.8100000000000005 c-20.3,1.7200000000000002 -40.7,2.91 -61.12,3.79 c-26.22,1.15 -52.49,1.8 -78.73,2.45 c-51.29,1.26 -102.62,2.52 -154,3.39 l-18.23,0.30000000000000004 l-22.24,0.30000000000000004 l-12.86,0.15000000000000002 c-81,0.8600000000000001 -161.88,0.42000000000000004 -242.62,-2.88 q-8.06,-0.32000000000000006 -16.09,-0.7000000000000001 q-18,-0.79 -36,-1.83 c-24.05,-1.36 -48.29,-3.08 -72.27,-5.63 q-9.54,-1 -19,-2.21 q-6.45,-0.79 -12.86,-1.73 q-7.14,-1 -14.22,-2.18 c-35,-5.72 -68.79,-14 -99.95,-26.62 A259.37,259.37 0 0 1 56.88999938964844,563.3099981689453 v-176 c4.44,-5.15 8.85,-10.3 13.09,-15.51 c5.1,-6.26 10,-12.71 14.5,-19.33 h96.8 V292.8199981689453 h170.5 V423.95999816894533 H629.4899993896485 v-104 H949.8899993896484 a112,112 0 0 0 -8.39,16.65 V337.1699981689453 h-0.37000000000000005 a71.62,71.62 0 0 0 -4.67,19.3 a50.47,50.47 0 0 0 5,27.6 v0.42000000000000004 l0.09000000000000002,0.2 c9.28,18.4 28.92,31.44 51.66,43 c4.19,2.14 8.5,4.22 12.870000000000001,6.28 c24.41,11.52 50.71,22.24 70.83,36.4 l0.6000000000000001,0.42000000000000004 A107.61,107.61 0 0 1 1092.3199993896485,483.1699981689453 c0.15000000000000002,0.14 0.28,0.28 0.41000000000000003,0.42000000000000004 a77.34,77.34 0 0 1 5.36,6.17 a54.21,54.21 0 0 1 11.68,32.27 C1109.7799993896485,522.3299981689453 1109.7799993896485,522.5999981689453 1109.7799993896485,522.8699981689454 z" opacity="0.3" id="svg_16" class=""/><rect x="88.69000244140625" y="376.7900085449219" width="28.600000381469727" height="19.299999237060547" opacity="0.4" id="svg_17"/><rect x="134.4499969482422" y="376.7900085449219" width="28.600000381469727" height="19.299999237060547" opacity="0.4" id="svg_18"/><rect x="659.8800048828125" y="337.1199951171875" width="28.600000381469727" height="19.299999237060547" opacity="0.4" id="svg_19"/><rect x="737.0900268554688" y="337.1199951171875" width="28.600000381469727" height="19.299999237060547" opacity="0.4" id="svg_20"/><rect x="820.010009765625" y="337.1199951171875" width="28.600000381469727" height="19.299999237060547" opacity="0.4" id="svg_21"/><rect x="659.8800048828125" y="396.1000061035156" width="28.600000381469727" height="19.299999237060547" opacity="0.4" id="svg_22"/><rect x="737.0900268554688" y="396.1000061035156" width="28.600000381469727" height="19.299999237060547" opacity="0.4" id="svg_23"/><rect x="820.010009765625" y="396.1000061035156" width="28.600000381469727" height="19.299999237060547" fill="#181616" id="svg_24"/><rect x="659.8800048828125" y="455.07000732421875" width="28.600000381469727" height="19.299999237060547" opacity="0.4" id="svg_25"/><rect x="737.0900268554688" y="455.07000732421875" width="28.600000381469727" height="19.299999237060547" opacity="0.4" id="svg_26"/><rect x="820.010009765625" y="455.07000732421875" width="28.600000381469727" height="19.299999237060547" opacity="0.4" id="svg_27"/><rect x="659.8800048828125" y="514.0499877929688" width="28.600000381469727" height="19.299999237060547" opacity="0.4" id="svg_28"/><rect x="737.0900268554688" y="514.0499877929688" width="28.600000381469727" height="19.299999237060547" opacity="0.4" id="svg_29"/><rect x="820.010009765625" y="514.0499877929688" width="28.600000381469727" height="19.299999237060547" opacity="0.4" id="svg_30"/><rect x="659.8800048828125" y="573.030029296875" width="28.600000381469727" height="19.299999237060547" opacity="0.4" id="svg_31"/><rect x="737.0900268554688" y="573.030029296875" width="28.600000381469727" height="19.299999237060547" opacity="0.4" id="svg_32"/><path d="M941.1699993896484,337.1699981689453 a71.62,71.62 0 0 0 -4.67,19.3 H920.8099993896484 V337.1699981689453 z" opacity="0.4" id="svg_34"/><rect x="920.8099975585938" y="396.1000061035156" width="28.600000381469727" height="19.299999237060547" fill="#181616" id="svg_35"/><rect x="920.8099975585938" y="455.07000732421875" width="28.600000381469727" height="19.299999237060547" opacity="0.4" id="svg_36"/><rect x="920.8099975585938" y="514.0499877929688" width="28.600000381469727" height="19.299999237060547" opacity="0.4" id="svg_37"/><rect x="920.8099975585938" y="573.030029296875" width="28.600000381469727" height="19.299999237060547" opacity="0.4" id="svg_38"/><rect x="247.39999389648438" y="314.6000061035156" width="28.600000381469727" height="19.299999237060547" opacity="0.4" id="svg_39"/><rect x="247.39999389648438" y="357.8699951171875" width="28.600000381469727" height="19.299999237060547" fill="#181616" id="svg_40"/><rect x="247.39999389648438" y="401.1300048828125" width="28.600000381469727" height="19.299999237060547" opacity="0.4" id="svg_41"/><rect x="247.39999389648438" y="444.3999938964844" width="28.600000381469727" height="19.299999237060547" opacity="0.4" id="svg_42"/><rect x="247.39999389648438" y="487.6600036621094" width="28.600000381469727" height="19.299999237060547" opacity="0.4" id="svg_43"/><rect x="247.39999389648438" y="530.9299926757812" width="28.600000381469727" height="19.299999237060547" opacity="0.4" id="svg_44"/><rect x="247.39999389648438" y="574.1900024414062" width="28.600000381469727" height="19.299999237060547" opacity="0.4" id="svg_45"/><rect x="88.69000244140625" y="427.2300109863281" width="28.600000381469727" height="19.299999237060547" opacity="0.4" id="svg_46"/><rect x="134.4499969482422" y="427.2300109863281" width="28.600000381469727" height="19.299999237060547" opacity="0.4" id="svg_47"/><rect x="88.69000244140625" y="477.6700134277344" width="28.600000381469727" height="19.299999237060547" opacity="0.4" id="svg_48"/><rect x="134.4499969482422" y="477.6700134277344" width="28.600000381469727" height="19.299999237060547" opacity="0.4" id="svg_49"/><rect x="88.69000244140625" y="528.1099853515625" width="28.600000381469727" height="19.299999237060547" opacity="0.4" id="svg_50"/><rect x="134.4499969482422" y="528.1099853515625" width="28.600000381469727" height="19.299999237060547" opacity="0.4" id="svg_51"/><rect x="408.9599914550781" y="446.45001220703125" width="142.97999572753906" height="17.25" opacity="0.4" id="svg_52"/><rect x="408.9599914550781" y="501.489990234375" width="142.97999572753906" height="17.25" opacity="0.4" id="svg_53"/><rect x="408.9599914550781" y="556.5399780273438" width="142.97999572753906" height="17.25" opacity="0.4" id="svg_54"/><path d="M208.34999938964845,0.6899981689453085 v604 q-6.45,-0.79 -12.86,-1.73 V0.0899981689453142 C199.77999938964842,0.1699981689453125 204.05999938964842,0.38999816894531136 208.34999938964845,0.6899981689453085 z" fill="#3f3d56" id="svg_55"/><path d="M607.2499993896485,99.31999816894532 V617.8299981689453 l-12.86,0.15000000000000002 V97.74999816894533 Q600.8099993896484,98.6199981689453 607.2499993896485,99.31999816894532 z" fill="#3f3d56" id="svg_56"/><path d="M1092.7299993896484,483.1699981689453 H0.27999938964843807 a81.22,81.22 0 0 1 2.23,-12.870000000000001 H1077.5899993896485 A105.88,105.88 0 0 1 1092.7299993896484,483.1699981689453 z" fill="#3f3d56" id="svg_57"/><path d="M993.2899993896485,427.2299981689453 c4.19,2.14 8.5,4.22 12.870000000000001,6.28 V599.9299981689453 c-4.28,0.7200000000000001 -8.58,1.37 -12.870000000000001,2 z" fill="#3f3d56" id="svg_58"/><polygon points="337.33 229.81 334.87 229.81 334.87 227.35 334.43 227.35 334.43 229.81 331.97 229.81 331.97 230.25 334.43 230.25 334.43 232.71 334.87 232.71 334.87 230.25 337.33 230.25 337.33 229.81" fill="#e7effd" id="svg_59"/><polygon points="848.61 178.68 846.15 178.68 846.15 176.22 845.7 176.22 845.7 178.68 843.25 178.68 843.25 179.12 845.7 179.12 845.7 181.58 846.15 181.58 846.15 179.12 848.61 179.12 848.61 178.68" fill="#e7effd" id="svg_60"/><polygon points="395.6 168.73 393.14 168.73 393.14 166.27 392.69 166.27 392.69 168.73 390.24 168.73 390.24 169.18 392.69 169.18 392.69 171.63 393.14 171.63 393.14 169.18 395.6 169.18 395.6 168.73" fill="#e7effd" id="svg_61"/><circle cx="391.8500061035156" cy="325.9599914550781" r="1.6100000143051147" fill="#e7effd" id="svg_62"/><circle cx="759.02001953125" cy="182.1199951171875" r="1.6100000143051147" fill="#e7effd" id="svg_63"/><circle cx="920.8099975585938" cy="258.3699951171875" r="1.6100000143051147" fill="#e7effd" id="svg_64"/><circle cx="667.4299926757812" cy="272.17999267578125" r="1.6100000143051147" fill="#e7effd" id="svg_65"/><path d="M715.3199993896484,543.1699981689453 s-34.31,8.3 -47.89,23.83 c-4.55,5.19 -11.3,8.93 -18.27,11.6 V555.1699981689453 c7.85,-13.18 15.76,-27.84 15.76,-27.84 c0.36000000000000004,-0.7200000000000001 3.22,-10.83 3.22,-10.83 c6.44,-5.06 -0.36000000000000004,-22.74 -0.36000000000000004,-22.74 s3.94,-11.19 1.79,-13.36 s-0.36000000000000004,-7.94 1.4300000000000002,-10.47 s1.4300000000000002,-5.78 1.4300000000000002,-7.94 s-2.8600000000000003,-5.42 -7.51,-7.22 s0.36000000000000004,-4.69 3.22,-5.42 s3.58,-7.58 0.36000000000000004,-11.19 s0.36000000000000004,-5.77 2.14,-9.74 S664.8899993896484,425.1699981689453 664.8899993896484,425.1699981689453 V388.6699981689453 h0 s-2.15,-11.91 -4.29,-32.85 s-10.37,-23.1 -10.37,-23.1 a94.19,94.19 0 0 1 -12.870000000000001,-5.06 a88.15,88.15 0 0 0 -13.58,-5.05 s-9.65,0 -17.52,-2.42 s-11.95,-2.59 -11.95,-2.59 l-1.29,-0.6400000000000001 a46.83,46.83 0 0 1 -21.69,-23 c-0.22000000000000003,-0.5 -0.42000000000000004,-1 -0.6200000000000001,-1.48 a50.48,50.48 0 0 0 5.71,-7.58 l0,-0.06000000000000001 c0,0.37000000000000005 0,0.7400000000000001 0,1.11 c0,0.15000000000000002 0,0.31000000000000005 0,0.46 c0,0.8900000000000001 0,1.78 0,2.67 h0 V289.1699981689453 c5.7,-10.07 22.24,-12.37 23.81,-23.87 a12,12 0 0 0 0.11000000000000001,-1.58 v-0.07 c0,-0.38000000000000006 0,-0.77 0,-1.1600000000000001 c-0.21000000000000002,-3.21 -1.31,-6.41 -1.52,-9.65 a18.53,18.53 0 0 1 0,-2.79 v0.06000000000000001 c0.7400000000000001,-8.93 7.47,-16.7 10.55,-25.37 a30.41,30.41 0 0 0 1.61,-7.22 v-0.07 c0.08000000000000002,-0.7400000000000001 0.13,-1.49 0.15000000000000002,-2.24 c0,-0.18000000000000002 0,-0.37000000000000005 0,-0.55 c0,-0.52 0,-1 0,-1.56 a33.78,33.78 0 0 0 -11.15,-24.4 c-5.7,-4.95 -13.23,-8.06 -17.18,-14.53 c-1.84,-3 -2.74,-6.5600000000000005 -4.75,-9.46 c-3.7800000000000002,-5.48 -10.72,-7.71 -17.29,-8.5 s-13.32,-0.53 -19.6,-2.59 c-4.46,-1.46 -8.5,-4.05 -13,-5.35 a24.87,24.87 0 0 0 -26.71,9.63 c-2.37,3.46 -3.92,7.6 -7.12,10.3 c-6.55,5.54 -17.66,3.14 -23.4,9.52 c-3.15,3.51 -3.51,8.29 -3.13,13.17 c0,0.06000000000000001 0,0.12000000000000001 0,0.18000000000000002 c0,0.37000000000000005 0.07,0.7500000000000001 0.11000000000000001,1.13 c0,0.18000000000000002 0,0.36000000000000004 0,0.53 s0,0.38000000000000006 0.07,0.5700000000000001 c0.2,1.75 0.45,3.49 0.6700000000000002,5.17 c0,0.26 0.06000000000000001,0.51 0.09000000000000002,0.77 l0.18000000000000002,1.57 c0,0.38000000000000006 0.06000000000000001,0.7600000000000001 0.1,1.1400000000000001 s0.07,1 0.1,1.42 s0,0.7400000000000001 0.07,1.12 a77.16,77.16 0 0 1 -8.2,38.5 c-5.41,10.61 -13.45,20.39 -14.85,32.24 a34.73,34.73 0 0 0 -0.16000000000000003,5.85 c0,0.23 0,0.46 0,0.6900000000000002 s0.06000000000000001,0.7000000000000001 0.09000000000000002,1.05 s0.08000000000000002,0.81 0.13,1.21 c0,0.23 0.06000000000000001,0.46 0.09000000000000002,0.6900000000000002 c0.07,0.53 0.15000000000000002,1.06 0.24000000000000002,1.6 l0.06000000000000001,0.3400000000000001 c1.42,8.08 4.640000000000001,16 6.35,24.16 a65.34,65.34 0 0 1 1.28,9.13 a0.13,0.13 0 0 0 0,0.06000000000000001 c0.06000000000000001,1 0.11000000000000001,1.9500000000000002 0.14,2.93 c0,1.32 0,2.6500000000000004 0,4 a63.46,63.46 0 0 1 -8.33,2.56 c-5,0.7200000000000001 -19.67,13.72 -18.6,17 s-6.5600000000000005,26 -6.77,26.69 h0 l-12,83 s-6.37,6.14 -4.38,10.11 s-0.39000000000000007,10.83 -0.39000000000000007,10.83 s-10.76,4.69 -8.37,7.58 s1.3,8.3 -0.3400000000000001,11.91 s-4.33,10.11 0,11.19 s0.7400000000000001,15.17 0.7400000000000001,15.17 s15.09,-1.7400000000000002 14,7.22 c-0.36000000000000004,2.85 10.55,10.69 15.1,13.83 V587.1699981689453 c-6.11,-1.71 -13.29,-3.93 -17.87,-6.07 c-9.29,-4.33 -61.48,-12.63 -72.92,12.28 s15.73,58.12 22.52,61.73 c0,0 6.44,5.05 7.87,7.58 s9.65,3.25 9.65,3.25 s8.58,4 10.72,6.13 c1.58,1.6 14.65,5.75 30.14,9 h0 s-12.51,28.8 7.9,26.43 s30.35,-12.42 44.74,-12.42 c5.75,0 16.43,-0.81 27.18,-1.77 a72.24,72.24 0 0 1 8,1.8900000000000001 a102.81,102.81 0 0 0 18.58,4 s16.09,8.66 24.67,6.49 a5.45,5.45 0 0 0 1.94,-1 l0.2,0 c1.56,-0.39000000000000007 3.33,-2 5.17,-4.43 c10.73,1.1 23,2.66 27.56,4.44 c8.89,3.43 72.48,-1.32 72.48,-1.32 s41.08,0.81 52.85,4.37 s7.59,-36.35 -14.13,-40.84 A89.12,89.12 0 0 0 674.6599993896484,665.1699981689453 a39.5,39.5 0 0 0 4.11,-5 c7.82,-0.7100000000000001 13,-1.15 13,-1.15 s20.73,-10.11 32.53,-16.25 a74.22,74.22 0 0 0 20,-15.88 s10.36,-6.5 14.65,-9 s6.43,-10.83 6.43,-10.83 C797.8899993896484,533.4099981689453 715.3199993896484,543.1699981689453 715.3199993896484,543.1699981689453 zm-93.08,-92.38 c0,-1.21 0,-2.43 0,-3.64 C623.3999993896484,447.96999816894527 623.2299993896485,449.25999816894534 622.2399993896485,450.7799981689453 zm0.3400000000000001,25.53 c0.8700000000000001,1.1400000000000001 1.71,2.18 2.31,3 c2.31,3 -1.87,4.4 -1.57,9.37 c0.07,1.11 0.17,2.66 0.27,4.38 h0 C623.1499993896484,485.89999816894533 622.7899993896484,479.99999816894535 622.5799993896485,476.3099981689453 z" fill="url(#528408a2-f79a-48f6-b2a6-578d2aaf4c5c)" id="svg_66"/><path d="M436.51999938964843,590.2399981689454 s-20,-4.65 -29.31,-8.94 s-61.48,-12.51 -72.92,12.16 s15.73,57.54 22.52,61.12 S429.7299993896484,609.1699981689453 429.7299993896484,609.1699981689453 L481.88999938964844,631.1699981689453 l10,-34.14 z" fill="#65617d" id="svg_67"/><rect x="458.5899963378906" y="597.030029296875" width="227.07000732421875" height="78.98999786376953" rx="36.83000183105469" ry="36.83000183105469" fill="#65617d" id="svg_68"/><path d="M685.6599993896484,636.5199981689453 a39.41,39.41 0 0 1 -6.58,21.84 a40,40 0 0 1 -5,6.1 a39.37,39.37 0 0 1 -27.93,11.57 H498.0899993896485 a39.5,39.5 0 0 1 0,-79 H646.1599993896484 a39.5,39.5 0 0 1 39.5,39.49 z" opacity="0.1" id="svg_69"/><path d="M562.0299993896484,637.9825405216217 s-22.77,5.85 -41.35,5.59 S415.18999938964845,679.4225405216217 415.18999938964845,679.4225405216217 s-12.51,28.52 7.9,26.16 S453.43999938964845,693.3225405216217 467.8299993896485,693.3225405216217 s59.66,-5 59.66,-5 l43.56,-32.18 z" fill="#e5b181" id="svg_70" class="" fill-opacity="1"/><path d="M576.2799993896484,369.6999981689453 l-40.84,8.05 l-2.6500000000000004,0.53 s-32.29,-8.58 -33.36,-9.3 s-30.38,-40.21 -30.38,-40.21 s14.82,0.16000000000000003 26.46,-6.55 c0.42000000000000004,-0.24000000000000002 0.8300000000000001,-0.5 1.24,-0.7500000000000001 a25.8,25.8 0 0 0 11,-13.49 c0.21000000000000002,-0.5900000000000001 0.39000000000000007,-1.2 0.56,-1.84 c1.24,-4.78 1.32,-10.57 -0.3400000000000001,-17.58 c-4,-16.67 5.2,-21.26 17.39,-20.86 c17.61,0.5800000000000001 41.58,11.57 41.58,11.57 a48.87,48.87 0 0 0 3.77,16.3 c0.19000000000000003,0.48000000000000004 0.4,1 0.6200000000000001,1.46 a46.54,46.54 0 0 0 21.69,22.75 l1.29,0.6400000000000001 c1.3,0.6200000000000001 2.67,1.21 4.09,1.7400000000000002 C629.5399993896484,333.95999816894533 576.2799993896484,369.6999981689453 576.2799993896484,369.6999981689453 z" fill="#e5b181" id="svg_71" class="" fill-opacity="1"/><path d="M571.3699993896485,297.0299981689453 a51.51,51.51 0 0 1 -63.58,10.95 c1.7600000000000002,-5.12 2.09,-11.49 0.22000000000000003,-19.42 c-9.65,-40.75 59,-9.29 59,-9.29 A49.53,49.53 0 0 0 571.3699993896485,297.0299981689453 z" opacity="0.1" id="svg_72"/><path d="M584.2599993896484,260.82999816894534 a51.12,51.12 0 0 1 -7.8,27.23 a50.39,50.39 0 0 1 -5.71,7.51 A51.18,51.18 0 0 1 535.8899993896484,312.1699981689453 c-1,0.07 -2.07,0.1 -3.11,0.1 a51.47,51.47 0 1 1 51.47,-51.47 z" fill="#e5b181" id="svg_73" class="" fill-opacity="1"/><path d="M576.2799993896484,369.6999981689453 l-40.84,8.05 l-2.6500000000000004,0.53 s-32.29,-8.58 -33.36,-9.3 s-30.38,-40.21 -30.38,-40.21 s14.82,0.16000000000000003 26.46,-6.55 c0.42000000000000004,-0.24000000000000002 0.8300000000000001,-0.5 1.24,-0.7500000000000001 c3.7,4 15.81,15.31 34.84,15.23 A50.33,50.33 0 0 0 538.8899993896484,336.1699981689453 c5.74,-0.8800000000000001 11.53,-1.45 17.31,-2 c11.07,-1.1600000000000001 28,-4.52 36.89,-14.3 l1.29,0.6400000000000001 c1.3,0.6200000000000001 2.67,1.21 4.09,1.7400000000000002 C629.5399993896484,333.95999816894533 576.2799993896484,369.6999981689453 576.2799993896484,369.6999981689453 z" opacity="0.1" id="svg_74"/><path d="M622.3899993896484,474.0699981689453 c0.35000000000000003,7.87 6.08,96.51 6.08,96.51 H450.0999993896484 l1.21,-55.81 l1,-44.64 l0.32000000000000006,-14.65 l1.4300000000000002,-50.75 L448.88999938964844,400.1699981689453 L420.7899993896484,375.4099981689453 h0 c0.21000000000000002,-0.6600000000000001 7.83,-23.25 6.77,-26.43 s13.59,-16.08 18.6,-16.8 a65.12,65.12 0 0 0 8.38,-2.55 c8.43,-3 19.68,-7.32 20.92,-6.640000000000001 c1.75,0.9400000000000001 19.29,-0.6900000000000002 20,-0.7600000000000001 h0 s12.94,16.73 36.06,16.63 a49,49 0 0 0 7.27,-0.5800000000000001 c5.74,-0.8800000000000001 11.53,-1.45 17.31,-2.05 c11.63,-1.21 29.71,-4.86 38.18,-15.8 c0,0 4.09,0.17 11.95,2.56 s17.52,2.4 17.52,2.4 a88.91,88.91 0 0 1 13.58,5 a95,95 0 0 0 12.870000000000001,5 s8.22,2.14 10.37,22.87 S664.8899993896484,390.7899981689453 664.8899993896484,390.7899981689453 L622.3899993896484,427.5999981689453 S622.0399993896484,466.1699981689453 622.3899993896484,474.0699981689453 z" fill="#181616" id="svg_75" class=""/><polygon points="420.8 535.91 427.05 545.92 450.46 554.17 466.55 524.83 451.72 514.82 427.95 505.53 414.37 513.39 420.8 535.91" fill="#e5b181" id="svg_76" class="" fill-opacity="1"/><path d="M620.5999993896485,585.2299981689453 s33.24,-2.5 46.83,-17.87 s47.89,-23.59 47.89,-23.59 s82.57,-9.65 50,63.27 c0,0 -2.14,8.22 -6.43,10.72 s-14.65,8.94 -14.65,8.94 L617.4099993896484,615.6199981689454 z" fill="#65617d" id="svg_77"/><path d="M685.6599993896484,636.5199981689453 a39.41,39.41 0 0 1 -6.58,21.84 c-21.34,1.8900000000000001 -68.6,6.33 -78.49,9.09 c-12.15,3.37 -36.74,-2.5 -39.43,-3.16 l-0.25,-0.06000000000000001 s-4.74,-14.38 -7,-23.58 c-1,-4.18 -1.53,-7.29 -0.8700000000000001,-7.52 c2.15,-0.7100000000000001 21.81,-6.08 21.45,-3 s59,-23.06 59,-23.06 l1.82,22.88 C641.3399993896485,636.8499981689453 685.6599993896484,626.5899981689453 685.6599993896484,636.5199981689453 z" opacity="0.1" id="svg_78"/><path d="M746.7799993896484,617.3999981689453 l-2.5,9.3 a74.09,74.09 0 0 1 -20,15.72 c-11.8,6.08 -32.53,16.09 -32.53,16.09 s-76.13,6.43 -89,10 s-39.68,-3.22 -39.68,-3.22 s-10,-30.38 -7.86,-31.1 s21.8,-6.07 21.45,-3 s59,-23.06 59,-23.06 z" fill="#65617d" id="svg_79"/><path d="M534.8099993896484,697.5399981689453 s37.42,2.6100000000000003 46.32,6 s72.48,-1.3 72.48,-1.3 s41.08,0.8 52.85,4.32 s7.59,-36 -14.13,-40.43 s-52.33,2.09 -52.33,2.09 s-34.54,-4.45 -38.73,-5 s-31.78,0.25 -31.78,0.25 z" fill="#e5b181" id="svg_80" class="" fill-opacity="1"/><path d="M387.75999938964844,598.8899981689453 s49.46,4.45 63.06,12.56 z" opacity="0.1" id="svg_81"/><path d="M696.2599993896484,566.4499981689453 s-38.73,9.42 -53.91,23.28 z" opacity="0.1" id="svg_82"/><path d="M390.63999938964844,587.6399981689453 c0.79,0.26 22.77,3.14 22.24,5.23 S390.63999938964844,587.6399981689453 390.63999938964844,587.6399981689453 z" opacity="0.1" id="svg_83"/><path d="M356.0999993896484,642.7799981689453 l2.8600000000000003,10.73 s6.43,5 7.86,7.5 s9.65,3.22 9.65,3.22 s8.58,3.93 10.73,6.07 s25.37,8.94 47.18,11.8 s62.19,8.22 70.77,11.08 a103,103 0 0 0 18.59,3.93 s16.08,8.58 24.66,6.44 s23.23,-41.11 23.23,-41.11 s-56.47,-13.22 -58.26,-17.51 s-56.12,-24.3 -56.12,-24.3 l-32.17,0.7600000000000001 z" opacity="0.1" id="svg_84"/><path d="M353.94999938964844,643.8499981689453 l2.8600000000000003,10.73 s6.44,5 7.87,7.5 s9.65,3.22 9.65,3.22 s8.58,3.93 10.72,6.08 s25.38,8.93 47.18,11.79 s62.2,8.22 70.78,11.08 A103.32,103.32 0 0 0 521.5899993896485,698.1699981689453 s16.09,8.57 24.67,6.43 s23.23,-41.11 23.23,-41.11 s-56.48,-13.22 -58.26,-17.51 S429.7299993896484,609.1699981689453 429.7299993896484,609.1699981689453 l-25,-5.72 z" fill="#65617d" id="svg_85" class=""/><path d="M427.0399993896484,371.8399981689453 l-6.25,3.58 l-12,82.21 s-6.37,6.08 -4.38,10 s-0.39000000000000007,10.72 -0.39000000000000007,10.72 s-10.76,4.65 -8.37,7.51 s1.3,8.22 -0.3400000000000001,11.79 s-4.33,10 0,11.08 s0.7400000000000001,15 0.7400000000000001,15 s15.09,-1.7200000000000002 14,7.14 c-0.45,3.58 17.06,15 17.06,15 s-19.9,-36.1 24.68,-31.1 l3.83,-20.35 s3.83,-11.46 0,-15 s0.8600000000000001,-20.55 0.8600000000000001,-20.55 l0.8400000000000001,-73.81 z" fill="#181616" id="svg_86" class=""/><path d="M417.32999938964844,478.00999816894534 c0.79,1.31 24.86,4 26.43,8.27 S417.32999938964844,478.00999816894534 417.32999938964844,478.00999816894534 z" opacity="0.1" id="svg_87"/><path d="M409.73999938964846,498.4199981689453 s3.27,-10.21 11,-8.38 S409.73999938964846,498.4199981689453 409.73999938964846,498.4199981689453 z" opacity="0.1" id="svg_88"/><path d="M405.55999938964845,513.3299981689453 s5.75,-13.61 13.6,-12.56 S405.55999938964845,513.3299981689453 405.55999938964845,513.3299981689453 z" opacity="0.1" id="svg_89"/><path d="M667.4299993896484,513.0299981689453 l-2.51,15 s-25.73,47.19 -30.38,47.9 s-30,-31.45 -30,-31.45 l-6.79,-31.46 l26.73,-5.07 l11.870000000000001,-11.73 S666.3499993896485,499.08999816894527 667.4299993896484,513.0299981689453 z" fill="#e5b181" id="svg_90" class="" fill-opacity="1"/><path d="M655.2699993896484,383.9999981689453 l9.65,6.79 v36.1 s7.51,-0.7200000000000001 5.72,3.22 s-5.36,6.07 -2.14,9.65 s2.5,10.36 -0.36000000000000004,11.08 s-7.86,3.5700000000000003 -3.22,5.36 s7.51,5 7.51,7.15 s0.36000000000000004,5.36 -1.4300000000000002,7.86 s-3.5700000000000003,8.22 -1.4300000000000002,10.37 s-1.79,13.22 -1.79,13.22 s6.8,17.52 0.36000000000000004,22.52 c0,0 -2.8600000000000003,10 -3.22,10.72 c0,0 4.51,-34.79 -40.46,-20.08 c0,0 -0.8300000000000001,-13.26 -1.1400000000000001,-18.17 s3.88,-6.35 1.57,-9.28 s-8.09,-9.66 -5.36,-11.44 s1.79,-5 0.7100000000000001,-7.51 s-4.85,-2.5 -1.4300000000000002,-5.54 s5.45,-5.890000000000001 3.44,-7.32 s-5.5,-6.09 -2.72,-8.23 s2.8600000000000003,-33.24 2.8600000000000003,-33.24 S633.8299993896485,361.4799981689453 655.2699993896484,383.9999981689453 z" fill="#181616" id="svg_91"/><path d="M650.7299993896485,445.49999816894535 s13.74,-3.73 14.19,0 S650.7299993896485,445.49999816894535 650.7299993896485,445.49999816894535 z" opacity="0.1" id="svg_92"/><path d="M635.2899993896484,455.76999816894534 s18.84,-4.71 21.19,-1.05 S635.2899993896484,455.76999816894534 635.2899993896484,455.76999816894534 z" opacity="0.1" id="svg_93"/><path d="M631.0999993896485,465.7099981689453 s28.26,-3.93 30.09,1.83 S631.0999993896485,465.7099981689453 631.0999993896485,465.7099981689453 z" opacity="0.1" id="svg_94"/><path d="M635.2899993896484,478.00999816894534 c1.05,0.26 27.21,2.09 27.73,7.06 S635.2899993896484,478.00999816894534 635.2899993896484,478.00999816894534 z" opacity="0.1" id="svg_95"/><rect x="425.0899963378906" y="494.1199951171875" width="224.0800018310547" height="127.2699966430664" rx="10.470000267028809" ry="10.470000267028809" fill="#3f3d56" id="svg_96"/><circle cx="537.1300048828125" cy="557.760009765625" r="8.260000228881836" fill="#e7effd" id="svg_97"/><path d="M462.60999938964846,416.1099981689453 s21.48,16.42 38.09,3.91 C500.6999993896484,420.01999816894534 472.61999938964846,422.5699981689453 462.60999938964846,416.1099981689453 z" opacity="0.1" id="svg_98"/><path d="M571.3699993896485,420.5299981689453 s21.47,16.41 38.08,3.9 C609.4499993896484,424.4299981689453 581.3799993896484,426.9899981689453 571.3699993896485,420.5299981689453 z" opacity="0.1" id="svg_99"/><path d="M584.2599993896484,260.82999816894534 a51.12,51.12 0 0 1 -7.8,27.23 c-0.43000000000000005,-14.33 -3.8,-28.67 -11.6,-40.64 c-7.14,-11 -28.85,-30.19 -43.77,-24.84 a10.57,10.57 0 0 0 -6.52,7 c-1.48,5.62 2.85,8 5.63,12.43 a38.11,38.11 0 0 1 5.2,25.68 a35.72,35.72 0 0 1 -0.7500000000000001,3.56 c-2.35,8.82 -7.73,18.91 -2.18,26.14 c3.87,5 12.19,6.78 13.32,13 A7.59,7.59 0 0 1 535.8899993896484,312.1699981689453 c-0.26,4.21 -3.85,7.92 -5.42,12.05 c-1.84,4.87 -0.8,9.71 1.11,14.6 c2.48,6.38 6.44,12.83 7.4,19.57 s-1.11,13 -3.55,19.33 c-2.31,6 -5,11.95 -5.9,18.2 c-1.73,11.88 2.63,25.62 -4.85,35 a5.24,5.24 0 0 1 -3.27,2.21 c-4.79,0.5 -4,-8.11 -7.83,-11 c0.41000000000000003,5 0.8,10.22 -1,14.9 s-6.54,8.66 -11.5,7.87 l-1.71,-11.23 a32.43,32.43 0 0 1 -11.9,7.45 A86.74,86.74 0 0 1 499.88999938964844,407.51999816894534 c-12.59,6.06 -19.93,19.18 -26.48,31.52 c-4.08,7.71 -8.31,16.13 -6.88,24.74 c0.5800000000000001,3.51 2.09,6.85 2.42,10.38 s-0.9500000000000001,7.66 -4.24,9 c-2.87,1.17 -6.22,-0.23 -8.29,-2.5700000000000003 l-0.36000000000000004,-0.43000000000000005 c-0.2,-0.26 -0.39000000000000007,-0.53 -0.5700000000000001,-0.8 a13.43,13.43 0 0 1 -0.9500000000000001,-1.7000000000000002 a32.89,32.89 0 0 1 -2,-6.57 l-0.22000000000000003,-1 c-3.33,-14.61 -6.33,-29.68 -3.89,-44.46 c0.9,-5.44 2.54,-10.84 2.34,-16.36 A30,30 0 0 0 448.88999938964844,400.1699981689453 c-2.92,-8.18 -8.54,-15.69 -11.74,-23.93 a0.7100000000000001,0.7100000000000001 0 0 1 -0.08000000000000002,-0.18000000000000002 c-1.6800000000000002,-4.36 -2.51,-9.81 0.6000000000000001,-13.31 c1.6,-1.81 4,-2.72 6,-4 c6.22,-4.05 9,-11.74 10.15,-19.08 a64.88,64.88 0 0 0 0.78,-10 c8.43,-3 19.68,-7.32 20.92,-6.640000000000001 c1.75,0.9400000000000001 19.29,-0.6900000000000002 20,-0.7600000000000001 c5.34,-3.08 10,-7.61 12.28,-14.24 c0.21000000000000002,-0.5900000000000001 0.39000000000000007,-1.2 0.56,-1.84 a51.47,51.47 0 1 1 75.91,-45.31 z" opacity="0.1" id="svg_100"/><path d="M524.6499993896484,269.1099981689453 c-2.36,8.82 -7.73,18.91 -2.17,26.15 c3.87,5 12.19,6.77 13.3,13 c0.8900000000000001,5 -3.52,9.12 -5.3,13.82 c-4.24,11.23 6.82,22.27 8.5,34.16 c1.83,12.9 -7.57,24.65 -9.44,37.54 c-1.73,11.88 2.63,25.61 -4.85,35 a5.18,5.18 0 0 1 -3.27,2.21 c-4.79,0.51 -4,-8.1 -7.83,-11 c0.41000000000000003,5 0.8,10.22 -1,14.9 s-6.54,8.65 -11.5,7.87 l-1.71,-11.24 a32.39,32.39 0 0 1 -11.9,7.45 A86.8,86.8 0 0 1 499.88999938964844,405.3799981689453 c-12.59,6.06 -19.92,19.18 -26.47,31.51 c-4.09,7.71 -8.31,16.14 -6.890000000000001,24.75 c0.5800000000000001,3.51 2.09,6.84 2.42,10.38 s-0.9500000000000001,7.65 -4.24,9 c-3,1.25 -6.63,-0.41000000000000003 -8.65,-3 s-2.8,-5.890000000000001 -3.5300000000000002,-9.08 c-3.42,-14.92 -6.61,-30.32 -4.12,-45.42 c0.9,-5.45 2.54,-10.85 2.34,-16.36 c-0.43000000000000005,-12.07 -9.34,-22 -13.68,-33.23 c-1.6900000000000002,-4.37 -2.51,-9.81 0.6000000000000001,-13.31 c1.6,-1.81 4,-2.72 6,-4 c6.21,-4.06 9,-11.74 10.14,-19.08 a66.12,66.12 0 0 0 -0.6700000000000002,-23.88 c-2.51,-11.75 -8.27,-23.23 -6.84,-35.16 c1.4,-11.74 9.44,-21.42 14.85,-31.93 a75.54,75.54 0 0 0 7.66,-44.15 c-0.93,-7.05 -2.56,-15.21 2.22,-20.48 c5.74,-6.32 16.85,-3.94 23.4,-9.42 c3.2,-2.67 4.75,-6.78 7.12,-10.2 a25,25 0 0 1 26.71,-9.54 c4.5,1.29 8.54,3.85 13,5.3 c6.28,2 13,1.78 19.6,2.5700000000000003 s13.51,3 17.29,8.41 c2,2.88 2.91,6.39 4.75,9.37 c3.95,6.4 11.48,9.48 17.18,14.39 a33.34,33.34 0 0 1 9.38,35.61 c-3.4,9.47 -11.27,17.85 -10.6,27.89 c0.27,4.13 2,8.18 1.46,12.27 c-1.58,11.39 -18.11,13.66 -23.82,23.64 c0.46,-16.36 -2.68,-33.21 -11.61,-46.92 c-7.14,-11 -28.85,-30.2 -43.77,-24.85 a10.61,10.61 0 0 0 -6.52,7 c-1.48,5.61 2.85,8 5.63,12.43 A37.8,37.8 0 0 1 524.6499993896484,269.1099981689453 z" fill="#3f3d56" id="svg_101"/><g opacity="0.2" id="svg_102"><path d="M454.5399993896484,325.7899981689453 a65.55,65.55 0 0 0 -1.4300000000000002,-15.3 c-2.13,-10 -6.59,-19.79 -7,-29.83 c-0.5800000000000001,11.18 4.65,22 7,33 A65.65,65.65 0 0 1 454.5399993896484,325.7899981689453 z" id="svg_103"/><path d="M497.13999938964844,406.9399981689453 c0.8700000000000001,-1.59 1.77,-3.17 2.74,-4.71 c-12.58,6.06 -19.92,19.18 -26.47,31.52 c-3.79,7.13 -7.68,14.89 -7.1,22.83 c0.48000000000000004,-6.8100000000000005 3.83,-13.45 7.1,-19.62 C479.4699993896485,425.5499981689453 486.2099993896485,413.4899981689453 497.13999938964844,406.9399981689453 z" id="svg_104"/><path d="M468.88999938964844,471.60999816894537 c-0.38000000000000006,2.7 -1.7200000000000002,5.26 -4.18,6.27 c-3,1.24 -6.63,-0.41000000000000003 -8.64,-3 s-2.81,-5.88 -3.54,-9.08 c-2.44,-10.66 -4.76,-21.58 -5,-32.45 c-0.24000000000000002,11.93 2.3,23.95 5,35.67 c0.7300000000000001,3.19 1.52,6.5 3.54,9.08 s5.61,4.24 8.64,3 c3.29,-1.35 4.58,-5.46 4.25,-9 C468.88999938964844,471.9299981689453 468.88999938964844,471.76999816894534 468.88999938964844,471.60999816894537 z" id="svg_105"/><path d="M525.8099993896484,258.3699981689453 a36.29,36.29 0 0 1 -1.1600000000000001,7.6 c-1.7400000000000002,6.53 -5.14,13.77 -4.53,20 c0.48000000000000004,-5.44 3.08,-11.36 4.53,-16.81 A36.14,36.14 0 0 0 525.8099993896484,258.3699981689453 z" id="svg_106"/><path d="M469.3999993896484,210.64999816894533 a75.05,75.05 0 0 0 -0.6200000000000001,-11.41 c-0.37000000000000005,-2.7800000000000002 -0.8400000000000001,-5.74 -1,-8.63 c-0.23,3.85 0.47000000000000003,8 1,11.85 A74.85,74.85 0 0 1 469.3999993896484,210.64999816894533 z" id="svg_107"/><path d="M535.7899993896484,308.3599981689453 c0,-0.09000000000000002 0,-0.16000000000000003 -0.07,-0.25 c-0.7600000000000001,3.72 -3.8200000000000003,7.12 -5.23,10.86 a15.23,15.23 0 0 0 -0.8800000000000001,7 a14.38,14.38 0 0 1 0.8800000000000001,-3.7800000000000002 C532.2599993896484,317.4799981689453 536.6699993896484,313.3199981689453 535.7899993896484,308.3599981689453 z" id="svg_108"/><path d="M450.74999938964845,404.01999816894534 c-0.44000000000000006,-12.07 -9.34,-22 -13.69,-33.23 a22.78,22.78 0 0 1 -1.4,-5.5 a18.58,18.58 0 0 0 1.4,8.72 c4.28,11.08 12.94,20.83 13.64,32.63 C450.74999938964845,405.76999816894534 450.7799993896484,404.88999816894534 450.74999938964845,404.01999816894534 z" id="svg_109"/><path d="M564.8899993896484,242.1699981689453 c-7.15,-11 -28.85,-30.2 -43.77,-24.85 a10.620000000000001,10.620000000000001 0 0 0 -6.53,7 a7.57,7.57 0 0 0 -0.11000000000000001,3.7600000000000002 c0,-0.18000000000000002 0.06000000000000001,-0.36000000000000004 0.11000000000000001,-0.54 a10.6,10.6 0 0 1 6.53,-7 c14.92,-5.35 36.62,13.88 43.77,24.85 c8.08,12.42 11.41,27.41 11.63,42.28 C576.7299993896485,271.7199981689453 573.5399993896484,255.44999816894529 564.8899993896484,242.1699981689453 z" id="svg_110"/><path d="M600.2899993896484,265.4199981689453 c-1.57,11.36 -18,13.65 -23.77,23.57 c0,1.09 0,2.19 0,3.2800000000000002 c5.7,-10 22.24,-12.25 23.81,-23.64 a13.57,13.57 0 0 0 0,-3.37 A0.8600000000000001,0.8600000000000001 0 0 1 600.2899993896484,265.4199981689453 z" id="svg_111"/><path d="M609.4299993896484,225.2499981689453 c-3.4,9.48 -11.27,17.85 -10.6,27.9 c0,0.14 0,0.29000000000000004 0,0.44000000000000006 c0.7400000000000001,-8.85 7.47,-16.53 10.55,-25.12 a31.48,31.48 0 0 0 1.75,-12.24 A30.57,30.57 0 0 1 609.4299993896484,225.2499981689453 z" id="svg_112"/><path d="M524.6899993896484,425.6599981689453 a5.2,5.2 0 0 1 -3.27,2.22 c-4.79,0.51 -4,-8.1 -7.83,-11 c0.1,1.1400000000000001 0.19000000000000003,2.29 0.25,3.44 c3.56,3.08 2.9,11.27 7.58,10.77 a5.15,5.15 0 0 0 3.27,-2.21 c4.27,-5.36 4.68,-12.13 4.57,-19.16 C529.1499993896484,415.57999816894534 528.2999993896484,421.1699981689453 524.6899993896484,425.6599981689453 z" id="svg_113"/><path d="M512.5799993896485,431.7799981689453 c-1.82,4.69 -6.54,8.66 -11.51,7.87 q-0.8500000000000001,-5.61 -1.7000000000000002,-11.24 a32.62,32.62 0 0 1 -11.31,7.23 c-0.22000000000000003,1.1400000000000001 -0.43000000000000005,2.29 -0.6000000000000001,3.44 a32.42,32.42 0 0 0 11.91,-7.45 q0.8500000000000001,5.63 1.7000000000000002,11.24 c5,0.78 9.69,-3.18 11.51,-7.87 A25.62,25.62 0 0 0 513.8899993896484,424.82999816894534 A21.63,21.63 0 0 1 512.5799993896485,431.7799981689453 z" id="svg_114"/><path d="M529.5399993896484,390.6599981689453 a57.13,57.13 0 0 0 -0.43000000000000005,9.11 a45.61,45.61 0 0 1 0.43000000000000005,-5.890000000000001 c1.79,-12.29 10.4,-23.54 9.620000000000001,-35.73 C538.4699993896485,369.1699981689453 531.1699993896484,379.45999816894533 529.5399993896484,390.6599981689453 z" id="svg_115"/></g><path d="M883.7899993896484,559.4399981689453 c-0.9,12.84 -3.25,27 -8.95,33.57 a11.5,11.5 0 0 1 -1.3,1.31 l-7,-1.49 C867.8899993896484,582.3999981689453 876.3699993896485,569.2699981689453 883.7899993896484,559.4399981689453 z" opacity="0.1" id="svg_136"/><polygon points="892.76 598.69 891.55 605.02 840.78 605.02 839.57 598.69 892.76 598.69" opacity="0.1" id="svg_144"/><path d="M241.63999938964844,517.5499981689453 a42.7,42.7 0 0 1 -2.87,3.38 a44.25,44.25 0 0 1 -0.53,-4.54 A5.86,5.86 0 0 1 241.63999938964844,517.5499981689453 z" opacity="0.1" id="svg_153"/><path d="M275.62999938964845,520.7299981689453 a6,6 0 0 1 4.05,-1.82 c-0.1,2.84 -0.37000000000000005,5.11 -0.37000000000000005,5.11 A37.54,37.54 0 0 1 275.62999938964845,520.7299981689453 z" opacity="0.1" id="svg_155"/><path d="M289.35999938964846,528.4799981689453 a20.9,20.9 0 0 1 -2.6,0.9400000000000001 l-3.47,-4.88 a35,35 0 0 1 1.44,-4.74 C286.9699993896484,521.1099981689454 288.61999938964846,524.3699981689454 289.35999938964846,528.4799981689453 z" opacity="0.1" id="svg_156"/><path d="M254.54999938964846,545.5899981689453 c1,3.6900000000000004 1.59,6.22 1.59,6.22 l-7.33,3.23 a43.9,43.9 0 0 1 -3.91,-2.21 C247.76999938964843,549.1699981689453 251.00999938964844,546.4399981689453 254.54999938964846,545.5899981689453 z" opacity="0.1" id="svg_163"/><path d="M271.1499993896484,560.3499981689453 c-0.4,0.08000000000000002 -0.8200000000000001,0.16000000000000003 -1.23,0.22000000000000003 c-24.59,3.74 -8.11,-9.53 -8.11,-9.53 s1.11,-1 2.6100000000000003,-2.68 C269.00999938964844,552.0299981689453 270.88999938964844,556.1699981689453 271.1499993896484,560.3499981689453 z" opacity="0.1" id="svg_164"/><circle cx="238.1300048828125" cy="529.8200073242188" r="1.5399999618530273" opacity="0.1" id="svg_166"/><circle cx="238" cy="537.02001953125" r="1.5399999618530273" opacity="0.1" id="svg_167"/><circle cx="282.7799987792969" cy="531.22998046875" r="1.5399999618530273" opacity="0.1" id="svg_168"/><circle cx="246.75" cy="568.1599731445312" r="1.5399999618530273" opacity="0.1" id="svg_169"/><circle cx="279.57000732421875" cy="543.2000122070312" r="1.5399999618530273" opacity="0.1" id="svg_170"/><circle cx="263.6099853515625" cy="559.1599731445312" r="1.5399999618530273" opacity="0.1" id="svg_171"/><circle cx="243.41000366210938" cy="532.9000244140625" r="1.5399999618530273" opacity="0.1" id="svg_172"/><circle cx="278.5400085449219" cy="535.8599853515625" r="1.5399999618530273" opacity="0.1" id="svg_173"/><circle cx="273.260009765625" cy="547.8300170898438" r="1.5399999618530273" opacity="0.1" id="svg_174" class=""/><circle cx="257.04998779296875" cy="567.010009765625" r="1.5399999618530273" opacity="0.1" id="svg_175"/><circle cx="253.6999969482422" cy="559.4099731445312" r="1.5399999618530273" opacity="0.1" id="svg_176"/><circle cx="245.72000122070312" cy="542.2999877929688" r="1.5399999618530273" opacity="0.1" id="svg_177"/><circle cx="259.1099853515625" cy="573.9600219726562" r="1.5399999618530273" opacity="0.1" id="svg_180"/><circle cx="249.83999633789062" cy="575.8900146484375" r="1.5399999618530273" opacity="0.1" id="svg_181"/></g></svg>